HIERARCHY
ROOT RootJoint
{
    OFFSET   0.000000   0.000000   0.000000
    CHANNELS 6 Xposition Yposition Zposition Xrotation Yrotation Zrotation
    JOINT pelvis_lowerback
    {
        OFFSET   0.000000   0.093605   0.000000
        CHANNELS 3 Xrotation Yrotation Zrotation
        JOINT lowerback_torso
        {
            OFFSET   0.000000   0.100000   0.000000
            CHANNELS 3 Xrotation Yrotation Zrotation
            JOINT torso_head
            {
                OFFSET   0.000000   0.282350   0.000000
                CHANNELS 3 Xrotation Yrotation Zrotation
                End Site
                {
                    OFFSET   0.000000   0.192650   0.000000
                }
            }
            JOINT rTorso_Clavicle
            {
                OFFSET  -0.001000   0.157500   0.000000
                CHANNELS 3 Xrotation Yrotation Zrotation
                JOINT rShoulder
                {
                    OFFSET  -0.117647   0.000000   0.000000
                    CHANNELS 3 Xrotation Yrotation Zrotation
                    JOINT rElbow
                    {
                        OFFSET  -0.245000   0.000000   0.000000
                        CHANNELS 3 Xrotation Yrotation Zrotation
                        JOINT rWrist
                        {
                            OFFSET  -0.240000   0.000000   0.000000
                            CHANNELS 3 Xrotation Yrotation Zrotation
                            End Site
                            {
                                OFFSET  -0.116353  -0.002500   0.000000
                            }
                        }
                    }
                }
            }
            JOINT lTorso_Clavicle
            {
                OFFSET   0.001000   0.157500   0.000000
                CHANNELS 3 Xrotation Yrotation Zrotation
                JOINT lShoulder
                {
                    OFFSET   0.117647   0.000000   0.000000
                    CHANNELS 3 Xrotation Yrotation Zrotation
                    JOINT lElbow
                    {
                        OFFSET   0.245000   0.000000   0.000000
                        CHANNELS 3 Xrotation Yrotation Zrotation
                        JOINT lWrist
                        {
                            OFFSET   0.240000   0.000000   0.000000
                            CHANNELS 3 Xrotation Yrotation Zrotation
                            End Site
                            {
                                OFFSET   0.116353  -0.002500   0.000000
                            }
                        }
                    }
                }
            }
        }
    }
    JOINT rHip
    {
        OFFSET  -0.100000  -0.051395   0.000000
        CHANNELS 3 Xrotation Yrotation Zrotation
        JOINT rKnee
        {
            OFFSET   0.000000  -0.410000   0.000000
            CHANNELS 3 Xrotation Yrotation Zrotation
            JOINT rAnkle
            {
                OFFSET   0.000000  -0.390000   0.000000
                CHANNELS 3 Xrotation Yrotation Zrotation
                JOINT rToeJoint
                {
                    OFFSET   0.000000  -0.050000   0.130000
                    CHANNELS 3 Xrotation Yrotation Zrotation
                    End Site
                    {
                        OFFSET  -0.010000   0.002000   0.060000
                    }
                }
            }
        }
    }
    JOINT lHip
    {
        OFFSET   0.100000  -0.051395   0.000000
        CHANNELS 3 Xrotation Yrotation Zrotation
        JOINT lKnee
        {
            OFFSET   0.000000  -0.410000   0.000000
            CHANNELS 3 Xrotation Yrotation Zrotation
            JOINT lAnkle
            {
                OFFSET   0.000000  -0.390000   0.000000
                CHANNELS 3 Xrotation Yrotation Zrotation
                JOINT lToeJoint
                {
                    OFFSET   0.000000  -0.050000   0.130000
                    CHANNELS 3 Xrotation Yrotation Zrotation
                    End Site
                    {
                        OFFSET   0.010000   0.002000   0.060000
                    }
                }
            }
        }
    }
}
MOTION
Frames: 8
Frame Time:   0.008333
 -2.376719   0.925631   3.975860   0.000000   0.000000   0.000000   0.000000   0.000000   0.000000   0.000000   0.000000   0.000000   0.000000   0.000000   0.000000   0.000000   0.000000   0.000000   0.000000   0.000000   0.000000   0.000000   0.000000   0.000000   0.000000   0.000000   0.000000   0.000000   0.000000   0.000000   0.000000   0.000000   0.000000   0.000000   0.000000   0.000000   0.000000   0.000000   0.000000   0.000000   0.000000   0.000000   0.000000   0.000000   0.000000   0.000000   0.000000   0.000000   0.000000   0.000000   0.000000   0.000000   0.000000   0.000000   0.000000   0.000000   0.000000   0.000000   0.000000   0.000000   0.000000   0.000000   0.000000
 -2.376535   0.925389   3.973797  -0.937723   0.546416  -0.205449   1.637520  -0.157172   0.239983  -0.198674  -0.188221   0.195281  -0.007761  -0.367207   0.056612  -0.587811  -0.274037  -0.297272  -2.130008  -0.361389   1.109077   0.029837   3.533203   0.067577   0.017285  -1.716834  -1.265232  -0.514687   0.217697  -0.016437  -0.246522  -0.661930  -1.813899   0.047476  -3.389481  -0.006155  -0.004353   2.043921   1.645749  -0.181953  -0.855624  -0.090592   2.924791   0.007228  -0.008135  -1.948271  -0.112162   0.291147  -0.267735  -0.000014   0.000977  -0.153057   0.078415   0.544815   3.200614  -0.008858   0.017810  -2.692724   0.253509  -0.087355   0.295512  -0.000667   0.002254
 -2.376322   0.924927   3.971241  -2.090814   1.271489  -0.401626   3.333291  -0.389303   0.521118  -0.162784  -0.490934   0.405586   0.060512  -0.716364   0.159513  -1.154778  -0.357574  -0.267952  -4.138818  -0.545749   2.386068   0.064479   7.215957   0.117667  -0.034645  -2.418808  -2.110026  -0.999544   0.099159  -0.516636  -0.524048  -1.593205  -3.903881   0.110728  -6.975662  -0.007470  -0.018493   2.885784   2.688827  -0.359298  -1.699850  -0.451983   6.023592   0.019715  -0.011535  -3.752345  -0.237365   0.552905  -0.537779  -0.000678   0.001385  -0.155394   0.194532   1.380883   6.768404  -0.022981   0.042935  -5.197371   0.509176  -0.157266   0.513275  -0.001571   0.003912
 -2.376139   0.923988   3.968413  -3.275354   2.041053  -0.555090   4.976804  -0.663742   0.795068  -0.052242  -0.849116   0.593747   0.133844  -1.040708   0.275049  -1.681540  -0.280281   0.002171  -6.013428  -0.636279   3.756796   0.096802  10.954375   0.154139  -0.082118  -2.676884  -2.540925  -1.454496  -0.246915  -1.305407  -0.832755  -2.642220  -6.099586   0.176530 -10.640120  -0.006860  -0.020182   3.128187   3.185969  -0.610023  -2.492767  -1.059019   8.950373   0.033654  -0.013910  -5.431390  -0.365996   0.790247  -0.773852  -0.001569   0.001505  -0.085671   0.325341   2.436420  10.393843  -0.038487   0.068741  -7.529380   0.758020  -0.210046   0.729174  -0.002727   0.005392
 -2.375996   0.922396   3.965458  -4.442115   2.780656  -0.665833   6.551642  -0.955536   1.046725   0.086576  -1.229469   0.750980   0.196808  -1.342697   0.390035  -2.170847  -0.094175   0.428660  -7.759926  -0.680632   5.168804   0.122946  14.725793   0.180574  -0.125157  -2.709358  -2.662788  -1.885134  -0.729725  -2.260055  -1.170698  -3.734774  -8.316706   0.238237 -14.351012  -0.004939  -0.013405   3.050225   3.298413  -0.955551  -3.229312  -1.867132  11.658251   0.046588  -0.017444  -6.998717  -0.495810   1.006354  -0.994395  -0.002534   0.001602   0.043244   0.460122   3.667294  13.977280  -0.053227   0.092164  -9.703955   0.997065  -0.246926   0.931461  -0.003890   0.006464
 -2.375882   0.920035   3.962493  -5.564725   3.464469  -0.739079   8.046528  -1.249208   1.269618   0.236188  -1.610482   0.874341   0.248663  -1.624959   0.500422  -2.627078   0.174308   0.944415  -9.386702  -0.692235   6.580187   0.138531  18.290673   0.196346  -0.160505  -2.524725  -2.570165  -2.295905  -1.295566  -3.303002  -1.533730  -4.830982 -10.504968   0.292673 -18.092473  -0.002007  -0.002837   2.785655   3.151615  -1.400977  -3.906323  -2.835480  14.148609   0.057174  -0.022172  -8.462645  -0.625233   1.203366  -1.202229  -0.003455   0.001730   0.247679   0.593383   5.034194  17.368296  -0.065334   0.111109 -11.731119   1.224474  -0.269798   1.121657  -0.004958   0.007177
 -2.375781   0.916824   3.959586  -6.633245   4.094163  -0.780647   9.464334  -1.543691   1.462732   0.390527  -1.989173   0.963947   0.290288  -1.888671   0.604524  -3.053446   0.488479   1.500939 -10.900973  -0.697545   7.958961   0.144331  21.635165   0.203924  -0.193335  -2.238899  -2.346883  -2.689880  -1.905613  -4.383293  -1.916712  -5.904423 -12.633634   0.338707 -21.854295   0.001901   0.007445   2.412023   2.834125  -1.936974  -4.521167  -3.926492  16.434589   0.064907  -0.027316  -9.830167  -0.752857   1.382955  -1.397486  -0.004253   0.001869   0.510660   0.721172   6.502378  20.557831  -0.074414   0.125854 -13.622802   1.439243  -0.280918   1.294800  -0.005813   0.007548
 -2.375532   0.912517   3.956267  -7.094151   4.520124  -0.774941  10.485962  -1.734668   1.565755   0.181423  -2.289163   1.044083   0.222298  -2.321797   0.657764  -3.390267   0.652872   1.932788 -12.547426  -0.715094   9.236380   0.136163  25.138613   0.221756  -0.252439  -2.125329  -1.807667  -2.776625  -2.322450  -5.078230  -2.328122  -7.129131 -14.934928   0.373275 -25.653851   0.012135   0.009812   1.934605   2.129895  -3.407357  -5.417649  -5.193711  19.087109   0.070688  -0.046429 -10.078695  -1.094068   1.656850  -1.528877  -0.004317   0.002741   0.302536   0.856685   7.846993  23.009890  -0.075365   0.126508 -15.224373   1.693301  -0.535353   1.568780  -0.006854   0.008622
